HIERARCHY
ROOT Hips
{
	OFFSET -0.001795 -0.223333 0.028219
	CHANNELS 6 Xposition Yposition Zposition Zrotation Yrotation Xrotation 
	JOINT LeftUpLeg
	{
		OFFSET 0.069520 -0.091406 -0.006815
		CHANNELS 3 Zrotation Yrotation Xrotation
		JOINT LeftLeg
		{
			OFFSET 0.034277 -0.375199 -0.004496
			CHANNELS 3 Zrotation Yrotation Xrotation
			JOINT LeftFoot
			{
				OFFSET -0.013596 -0.397961 -0.043693
				CHANNELS 3 Zrotation Yrotation Xrotation
				JOINT LeftToe
				{
					OFFSET 0.026358 -0.055791 0.119288
					CHANNELS 3 Zrotation Yrotation Xrotation
					End Site
					{
						OFFSET 0.000000 0.000000 0.000000
					}
				}
			}
		}
	}
	JOINT RightUpLeg
	{
		OFFSET -0.067670 -0.090522 -0.004320
		CHANNELS 3 Zrotation Yrotation Xrotation
		JOINT RightLeg
		{
			OFFSET -0.038290 -0.382569 -0.008850
			CHANNELS 3 Zrotation Yrotation Xrotation
			JOINT RightFoot
			{
				OFFSET 0.015774 -0.398415 -0.042312
				CHANNELS 3 Zrotation Yrotation Xrotation
				JOINT RightToe
				{
					OFFSET -0.025372 -0.048144 0.123348
					CHANNELS 3 Zrotation Yrotation Xrotation
					End Site
					{
						OFFSET 0.000000 0.000000 0.000000
					}
				}
			}
		}
	}
	JOINT Spine
	{
		OFFSET -0.002533 0.108963 -0.026696
		CHANNELS 3 Zrotation Yrotation Xrotation
		JOINT Spine1
		{
			OFFSET 0.005487 0.135180 0.001092
			CHANNELS 3 Zrotation Yrotation Xrotation
			JOINT Spine2
			{
				OFFSET 0.001457 0.052922 0.025425
				CHANNELS 3 Zrotation Yrotation Xrotation
				JOINT Neck
				{
					OFFSET -0.002778 0.213870 -0.042857
					CHANNELS 3 Zrotation Yrotation Xrotation
					JOINT Head
					{
						OFFSET 0.005152 0.064970 0.051349
						CHANNELS 3 Zrotation Yrotation Xrotation
						End Site
						{
							OFFSET 0.000000 0.000000 0.000000
						}
					}
				}
				JOINT LeftShoulder
				{
					OFFSET 0.078845 0.121749 -0.034090
					CHANNELS 3 Zrotation Yrotation Xrotation
					JOINT LeftArm
					{
						OFFSET 0.090977 0.030469 -0.008868
						CHANNELS 3 Zrotation Yrotation Xrotation
						JOINT LeftForeArm
						{
							OFFSET 0.259612 -0.012772 -0.027456
							CHANNELS 3 Zrotation Yrotation Xrotation
							JOINT LeftHand
							{
								OFFSET 0.249234 0.008986 -0.001171
								CHANNELS 3 Zrotation Yrotation Xrotation
								End Site
								{
									OFFSET 0.000000 0.000000 0.000000
								}
							}
						}
					}
				}
				JOINT RightShoulder
				{
					OFFSET -0.081759 0.118833 -0.038615
					CHANNELS 3 Zrotation Yrotation Xrotation
					JOINT RightArm
					{
						OFFSET -0.096012 0.032551 -0.009143
						CHANNELS 3 Zrotation Yrotation Xrotation
						JOINT RightForeArm
						{
							OFFSET -0.253742 -0.013329 -0.021401
							CHANNELS 3 Zrotation Yrotation Xrotation
							JOINT RightHand
							{
								OFFSET -0.255298 0.007772 -0.005559
								CHANNELS 3 Zrotation Yrotation Xrotation
								End Site
								{
									OFFSET 0.000000 0.000000 0.000000
								}
							}
						}
					}
				}
			}
		}
	}
}
MOTION
Frames: 10
Frame Time: 0.050000
-0.013323 0.922302 1.587602 1.027382 -12.740294 -2.883436 -10.250883 -0.545621 -2.781246 1.597557 -0.447411 7.575472 -0.392979 -2.248450 -4.192920 0.000000 0.000000 0.000000 -2.058613 0.423970 -4.391624 -2.465131 7.965367 53.777954 7.687660 5.132363 17.853549 0.000000 0.000000 0.000000 6.644181 -0.571432 6.819884 -4.110702 1.905155 -1.666270 -4.909704 11.550870 7.291217 9.995606 -3.030596 -23.566714 0.000000 0.000000 0.000000 -19.745520 -11.422643 2.729624 -49.690701 -11.329569 -1.187038 -1.692760 -28.404569 1.189576 0.000000 0.000000 0.000000 23.208182 0.131248 -0.246327 57.823375 9.134533 -1.937805 0.979097 31.652091 1.930353 0.000000 0.000000 0.000000 
-0.012674 0.923040 1.585857 1.142938 -13.020719 -3.121876 -10.516318 -0.475321 -2.336446 2.131314 -0.526479 6.627340 -0.878057 -3.162881 -3.591995 0.000000 0.000000 0.000000 -2.242191 0.456955 -4.794901 -2.240485 7.780586 53.265429 6.951094 4.812611 16.088085 0.000000 0.000000 0.000000 6.263783 -0.595856 7.449175 -3.944746 1.839987 -1.398771 -4.972497 11.574694 6.420361 10.130289 -3.039029 -23.821152 0.000000 0.000000 0.000000 -19.695067 -11.029595 2.490679 -50.103441 -11.013032 -1.258338 -1.535206 -28.327055 1.131671 0.000000 0.000000 0.000000 22.586680 0.049943 -0.320746 57.964216 9.806803 -1.494936 0.646114 31.330105 1.799965 0.000000 0.000000 0.000000 
-0.012425 0.924513 1.580912 1.107900 -13.198748 -3.279475 -10.437974 -0.339397 -1.584115 2.498542 -0.562660 5.615817 -1.272486 -3.936568 -3.204718 0.000000 0.000000 0.000000 -2.381945 0.497090 -5.294236 -1.892973 7.485696 52.750882 4.598413 1.946478 13.389835 0.000000 0.000000 0.000000 6.335933 -0.584592 7.330570 -4.266445 1.995680 -1.386812 -4.543013 11.080499 6.044925 9.655713 -2.888611 -23.579513 0.000000 0.000000 0.000000 -20.022715 -10.034414 2.103641 -50.028418 -10.399280 -1.518697 -2.763850 -28.512118 1.481458 0.000000 0.000000 0.000000 22.290919 -0.229487 -0.688582 57.333910 9.846072 -1.389896 1.157578 31.315161 1.865744 0.000000 0.000000 0.000000 
-0.012330 0.925704 1.571727 1.344199 -13.049453 -3.437737 -10.507649 -0.270478 -1.201902 2.581905 -0.542647 4.607677 -1.993726 -5.333669 -2.498722 0.000000 0.000000 0.000000 -2.300499 0.551068 -5.950072 -1.854729 7.228544 51.835744 2.720072 1.075956 8.358535 0.000000 0.000000 0.000000 5.760437 -0.579464 7.662007 -3.886832 1.822792 -1.213142 -4.756488 10.703049 6.037730 9.720453 -3.004407 -23.299660 0.000000 0.000000 0.000000 -20.362276 -9.738804 1.996214 -49.526879 -10.611433 -1.424003 -3.149624 -27.663355 1.549932 0.000000 0.000000 0.000000 22.318418 0.098382 -0.570054 57.114874 10.395716 -1.122479 1.059769 31.834317 1.859052 0.000000 0.000000 0.000000 
-0.012947 0.926921 1.556040 1.476584 -13.094730 -4.086076 -10.299083 -0.206702 -0.767302 2.408500 -0.493109 4.026716 -1.992098 -4.820350 -1.267940 0.000000 0.000000 0.000000 -1.602020 0.629291 -6.751475 -1.361994 7.042986 52.349415 2.104982 1.442983 5.577991 0.000000 0.000000 0.000000 4.938247 -0.584248 8.613675 -3.550286 1.683566 -0.790464 -4.661293 10.275643 6.216837 9.494974 -2.743691 -24.463283 0.000000 0.000000 0.000000 -20.364596 -9.580226 2.041774 -48.859351 -10.521133 -1.493913 -2.900515 -28.732546 1.571045 0.000000 0.000000 0.000000 22.172234 -0.348772 -0.954728 56.343188 11.352738 -0.668738 2.053497 32.714097 2.160261 0.000000 0.000000 0.000000 
-0.014222 0.927685 1.533393 0.789687 -12.631919 -4.489204 -9.155303 -0.286038 -1.173554 2.110558 -0.450284 4.173549 -2.574687 -5.671733 -0.224864 0.000000 0.000000 0.000000 -0.599031 0.772645 -7.928071 -0.648418 6.371451 51.952543 0.442534 0.175960 1.453058 0.000000 0.000000 0.000000 4.993813 -0.680685 10.200325 -3.225305 1.507098 -1.242124 -4.567478 9.398699 7.449429 9.350371 -2.617791 -25.474380 0.000000 0.000000 0.000000 -19.288721 -9.473808 2.277955 -49.374312 -12.270138 -0.982957 -2.348634 -28.652956 1.485694 0.000000 0.000000 0.000000 21.378543 -0.228547 -0.997132 56.283294 12.103768 -0.378204 3.803124 33.850547 2.727949 0.000000 0.000000 0.000000 
-0.015992 0.929442 1.505953 0.373506 -13.053087 -3.957762 -7.920227 -0.534160 -2.790656 2.217031 -0.464750 4.109359 -2.886782 -5.736569 1.164241 0.000000 0.000000 0.000000 -0.154831 1.182400 -11.375659 0.411950 6.005924 53.090420 -0.963598 -1.885782 -0.904189 0.000000 0.000000 0.000000 4.579250 -0.689110 10.810834 -2.600846 1.204411 -1.249755 -4.319947 9.225415 7.807515 8.419667 -2.007818 -26.646411 0.000000 0.000000 0.000000 -18.801905 -9.073032 2.220522 -49.494864 -12.423312 -0.991318 -2.096784 -30.380127 1.543233 0.000000 0.000000 0.000000 19.830009 0.180461 -0.795262 57.201874 11.819726 -0.447596 4.148535 34.972329 2.914069 0.000000 0.000000 0.000000 
-0.017974 0.931792 1.476567 0.127543 -13.645197 -3.373588 -6.947130 -0.816809 -4.878924 2.077132 -0.441903 4.185106 -2.958133 -5.589520 1.851779 0.000000 0.000000 0.000000 -0.116581 1.269825 -12.064061 0.865217 5.452823 50.820558 -1.628432 -2.411567 -2.837172 0.000000 0.000000 0.000000 4.247087 -0.695271 11.419325 -2.674510 1.223244 -1.561535 -3.536557 9.367515 8.326970 8.168168 -1.878734 -26.979234 0.000000 0.000000 0.000000 -18.912360 -9.070280 2.324605 -48.754303 -13.066475 -0.782557 -1.385641 -31.547849 1.438934 0.000000 0.000000 0.000000 18.737553 0.695921 -0.527307 58.023401 12.149973 -0.261306 2.942667 34.499319 2.496477 0.000000 0.000000 0.000000 
-0.020242 0.933478 1.447636 0.132722 -13.909244 -2.486200 -5.976301 -0.910289 -5.970960 1.594665 -0.335995 3.432830 -3.271056 -5.832729 2.836262 0.000000 0.000000 0.000000 -0.469923 1.200125 -11.675932 1.074499 5.227438 49.874591 -1.157550 -1.796731 -1.811171 0.000000 0.000000 0.000000 4.131746 -0.675634 10.986736 -2.728137 1.267656 -1.077868 -3.520144 9.889935 8.084025 8.326768 -1.966414 -26.505236 0.000000 0.000000 0.000000 -18.356181 -8.599348 1.988574 -48.818363 -12.672347 -0.894438 -1.735158 -32.463452 1.544461 0.000000 0.000000 0.000000 18.119641 -0.000209 -0.786229 59.370007 12.244758 -0.099063 2.983530 33.991753 2.499196 0.000000 0.000000 0.000000 
-0.022843 0.933536 1.419521 0.705839 -14.321198 -1.882234 -5.595707 -1.045956 -7.233628 1.174342 -0.256951 3.114596 -2.800540 -4.937030 2.711391 0.000000 0.000000 0.000000 -1.382580 0.875511 -9.129790 0.438801 5.286785 47.587362 -0.794039 -1.116831 -1.350884 0.000000 0.000000 0.000000 3.784174 -0.597808 9.866578 -3.452642 1.613881 -1.051475 -2.617899 10.067263 8.655638 7.650104 -1.636441 -26.728149 0.000000 0.000000 0.000000 -17.467587 -6.539421 1.076412 -50.039531 -12.237173 -1.177119 -3.302549 -33.680570 2.118130 0.000000 0.000000 0.000000 17.260280 -0.253842 -0.933688 60.606547 11.567123 -0.413375 2.924443 33.058344 2.386174 0.000000 0.000000 0.000000 
